<?xml version="1.0" standalone="no"?>
<!DOCTYPE svg PUBLIC "-//W3C//DTD SVG 20010904//EN"
 "http://www.w3.org/TR/2001/REC-SVG-20010904/DTD/svg10.dtd">
<svg version="1.0" xmlns="http://www.w3.org/2000/svg"
 width="16.000000pt" height="16.000000pt" viewBox="0 0 16.000000 16.000000"
 preserveAspectRatio="xMidYMid meet">
<metadata>
Created by potrace 1.11, written by Peter Selinger 2001-2013
</metadata>
<g transform="translate(0.000000,16.000000) scale(0.002286,-0.002286)"
fill="#000000" stroke="none">
<path d="M4614 6375 c-74 -17 -141 -52 -195 -105 -47 -45 -115 -173 -297 -560
-42 -89 -127 -267 -219 -460 -112 -232 -196 -408 -248 -515 -29 -60 -75 -157
-103 -215 -27 -58 -82 -172 -122 -255 -40 -82 -91 -190 -115 -240 -23 -49 -77
-162 -120 -250 -43 -88 -99 -205 -125 -260 -69 -146 -148 -310 -227 -475 -39
-80 -92 -190 -118 -245 -26 -55 -82 -170 -123 -255 -41 -85 -91 -191 -112
-235 -21 -44 -72 -152 -115 -240 -74 -153 -115 -239 -230 -480 -29 -60 -85
-177 -125 -260 -91 -189 -100 -215 -105 -295 -11 -173 98 -336 265 -395 49
-17 154 -23 210 -11 108 22 223 114 273 219 58 119 178 369 227 472 29 61 80
166 113 235 139 291 182 381 232 485 29 61 83 173 120 250 110 230 175 364
230 480 29 61 85 178 125 260 40 83 92 191 115 240 24 50 73 153 110 230 37
77 93 194 125 260 71 148 163 340 242 505 34 69 85 177 115 240 31 63 81 169
113 235 123 255 194 403 230 480 21 44 71 150 113 235 212 441 208 430 212
523 4 121 -31 213 -113 296 -92 93 -232 134 -358 106z"/>
<path d="M5509 5508 c-82 -10 -157 -48 -222 -111 -88 -85 -132 -209 -115 -329
11 -84 28 -116 172 -343 71 -110 145 -226 165 -258 20 -32 59 -93 86 -136 28
-43 55 -85 60 -94 6 -9 105 -163 220 -343 116 -180 222 -346 237 -369 l26 -42
-379 -594 c-356 -556 -434 -679 -515 -804 -56 -88 -77 -163 -72 -257 7 -132
63 -235 165 -304 92 -61 205 -86 293 -64 25 6 53 13 63 15 35 8 109 57 148 98
22 22 67 83 100 136 33 53 94 148 134 211 40 63 108 169 150 235 72 113 291
456 354 555 16 25 75 117 131 205 56 88 128 198 158 245 31 47 72 116 91 155
31 62 35 79 37 155 2 132 5 126 -227 490 -69 107 -147 230 -174 273 -28 43
-89 139 -137 213 -49 74 -88 137 -88 140 0 3 -5 10 -10 17 -6 7 -81 122 -166
257 -86 135 -166 261 -179 280 -115 178 -140 215 -166 244 -81 92 -213 141
-340 124z"/>
<path d="M1329 5496 c-107 -31 -173 -89 -266 -234 -31 -48 -66 -103 -78 -122
-25 -39 -222 -346 -641 -1002 -153 -241 -287 -451 -296 -467 -50 -87 -59 -242
-20 -331 19 -44 91 -160 584 -930 121 -190 284 -444 361 -565 77 -121 152
-235 167 -254 71 -86 194 -140 310 -136 254 8 431 243 369 490 -11 42 -39 96
-110 213 -9 15 -73 115 -142 222 -69 107 -171 267 -227 355 -56 88 -186 292
-290 454 l-188 294 69 106 c37 58 83 131 102 161 19 30 101 159 182 285 81
127 179 280 217 340 38 61 96 151 128 200 33 50 74 115 93 145 19 30 60 95 91
145 66 104 88 169 87 262 -1 151 -88 283 -231 351 -66 31 -196 40 -271 18z"/>
</g>
</svg>
